<svg width="109" height="110" viewBox="0 0 109 110" fill="none" xmlns="http://www.w3.org/2000/svg">
<path d="M97.8033 87.0342C88.9063 99.1295 77.1248 106.294 62.459 108.529C47.7932 110.763 34.4126 107.432 22.3174 98.5347C10.2222 89.6377 3.05734 77.8563 0.822962 63.1904C-1.41142 48.5246 1.91991 35.144 10.8169 23.0488C14.6164 17.8835 19.0267 13.5887 24.0478 10.1646C29.0689 6.74039 34.5046 4.27552 40.3549 2.76998C41.4352 2.473 42.4143 2.58681 43.2923 3.1114C44.1704 3.63599 44.6998 4.49138 44.8805 5.67759C45.0557 6.82785 44.8152 7.83181 44.1587 8.68948C43.5023 9.54716 42.6248 10.1369 41.5263 10.4588C36.7446 11.8567 32.283 13.9561 28.1417 16.7571C24.0004 19.558 20.2965 23.1787 17.0302 27.6192C9.41293 37.9747 6.56264 49.443 8.47939 62.0239C10.3961 74.6049 16.5323 84.7041 26.8878 92.3214C37.2433 99.9387 48.7116 102.789 61.2925 100.872C73.8735 98.9555 83.9727 92.8193 91.59 82.4638C94.8563 78.0234 97.2097 73.4094 98.6504 68.6218C100.091 63.8343 100.767 58.9499 100.677 53.9688C100.654 52.8285 100.956 51.8152 101.582 50.929C102.209 50.0428 103.095 49.5142 104.242 49.3431C105.432 49.1582 106.406 49.4088 107.165 50.095C107.927 50.777 108.328 51.6778 108.366 52.7974C108.667 58.8277 107.932 64.7508 106.163 70.5668C104.393 76.3828 101.607 81.8719 97.8033 87.0342ZM89.446 13.7838L55.6617 59.7126C55.0097 60.599 54.1697 61.1206 53.1416 61.2772C52.1136 61.4338 51.1563 61.1861 50.2699 60.5341C49.3835 59.882 48.8619 59.042 48.7053 58.0139C48.5487 56.9859 48.7964 56.0287 49.4484 55.1422L83.2327 9.21342L64.4044 12.082C63.3979 12.2353 62.4569 12.0219 61.5814 11.4417C60.706 10.8616 60.1806 9.9964 60.0054 8.84614C59.8301 7.69588 60.038 6.71896 60.6291 5.91537C61.2202 5.11178 62.0909 4.62235 63.2412 4.44711L88.9989 0.528372C90.7387 0.263314 92.2775 0.622853 93.6154 1.60701C94.9534 2.59117 95.7549 3.95314 96.0199 5.69291L99.9494 31.449C100.103 32.4554 99.8879 33.3985 99.3047 34.2781C98.7215 35.1577 97.8578 35.681 96.7136 35.848C95.5694 36.0149 94.5925 35.807 93.7828 35.2242C92.9732 34.6414 92.4837 33.7707 92.3146 32.6122L89.446 13.7838Z" fill="white"/>
</svg>
