<svg width="21" height="21" viewBox="0 0 21 21" fill="none" xmlns="http://www.w3.org/2000/svg">
<path d="M18.5428 16.3267C16.9304 18.5187 14.7953 19.8171 12.1374 20.2221C9.47956 20.627 7.05464 20.0233 4.86264 18.4109C2.67065 16.7985 1.37218 14.6634 0.967252 12.0055C0.562321 9.34766 1.16605 6.92274 2.77844 4.73074C3.46701 3.79464 4.26628 3.01631 5.17624 2.39576C6.08619 1.77521 7.0713 1.3285 8.13154 1.05566C8.32731 1.00183 8.50476 1.02246 8.66388 1.11753C8.82301 1.2126 8.91895 1.36762 8.9517 1.5826C8.98346 1.79106 8.93986 1.973 8.8209 2.12843C8.70194 2.28387 8.54291 2.39075 8.34384 2.44908C7.47725 2.70242 6.66869 3.08289 5.91817 3.59051C5.16764 4.09812 4.49641 4.75429 3.90446 5.55902C2.52399 7.43573 2.00744 9.5141 2.35481 11.7941C2.70218 14.0741 3.81421 15.9044 5.69092 17.2849C7.56763 18.6653 9.646 19.1819 11.926 18.8345C14.206 18.4871 16.0363 17.3751 17.4168 15.4984C18.0087 14.6937 18.4352 13.8575 18.6963 12.9898C18.9574 12.1222 19.0798 11.237 19.0636 10.3343C19.0594 10.1276 19.1141 9.94401 19.2276 9.78341C19.3411 9.62281 19.5018 9.527 19.7097 9.49599C19.9253 9.46249 20.1018 9.50791 20.2394 9.63226C20.3776 9.75585 20.4501 9.91911 20.457 10.122C20.5115 11.2149 20.3784 12.2883 20.0578 13.3423C19.7371 14.3963 19.2321 15.3911 18.5428 16.3267ZM17.0282 3.05167L10.9056 11.3752C10.7874 11.5359 10.6352 11.6304 10.4488 11.6588C10.2625 11.6872 10.0891 11.6423 9.92841 11.5241C9.76776 11.4059 9.67325 11.2537 9.64486 11.0674C9.61648 10.8811 9.66137 10.7076 9.77954 10.547L15.9022 2.22339L12.49 2.74325C12.3076 2.77104 12.137 2.73236 11.9784 2.62722C11.8197 2.52208 11.7245 2.36528 11.6927 2.15683C11.661 1.94837 11.6987 1.77132 11.8058 1.62569C11.9129 1.48006 12.0707 1.39136 12.2792 1.3596L16.9472 0.649415C17.2625 0.601379 17.5414 0.666538 17.7838 0.844894C18.0263 1.02325 18.1715 1.27008 18.2196 1.58537L18.9317 6.25308C18.9595 6.43549 18.9206 6.60639 18.8149 6.7658C18.7092 6.92522 18.5527 7.02005 18.3453 7.05031C18.1379 7.08057 17.9609 7.04288 17.8142 6.93726C17.6674 6.83164 17.5787 6.67385 17.5481 6.46389L17.0282 3.05167Z" fill="#EAAC33" fill-opacity="0.92"/>
</svg>
