<svg width="50" height="50" viewBox="0 0 50 50" fill="none" xmlns="http://www.w3.org/2000/svg">
<path d="M25 50C38.8071 50 50 38.8071 50 25C50 11.1929 38.8071 0 25 0C11.1929 0 0 11.1929 0 25C0 38.8071 11.1929 50 25 50Z" fill="#F3BA2F"/>
<path d="M18.9313 23.5063L25 17.4375L31.0719 23.5094L34.6031 19.9781L25 10.375L15.4 19.975L18.9313 23.5063ZM9.375 26L12.9063 22.4688L16.4375 26L12.9063 29.5312L9.375 26ZM18.9313 28.4938L25 34.5625L31.0719 28.4906L34.6031 32.0203L25 41.625L15.4 32.025L15.3953 32.0203L18.9313 28.4938ZM33.5625 26L37.0938 22.4688L40.625 26L37.0938 29.5312L33.5625 26ZM28.5812 25.9969H28.5844V26L25 29.5844L21.4203 26.0062L21.4141 26L21.4203 25.9953L22.0469 25.3672L22.3516 25.0625L25 22.4156L28.5812 25.9969Z" fill="white"/>
</svg>
