<svg width="34" height="34" viewBox="0 0 34 34" fill="none" xmlns="http://www.w3.org/2000/svg">
<g id="Group 1745">
<path id="Vector" d="M25.2872 29.4952C28.2135 27.5567 30.367 24.6522 31.3721 21.2882C32.3773 17.9241 32.1705 14.3139 30.7878 11.0867C29.405 7.85959 26.934 5.22024 23.8054 3.62875C20.6769 2.03727 17.0892 1.5946 13.6679 2.37791M25.2872 29.4952V23.6643M25.2872 29.4952H31.1543M8.67179 4.53203C5.75557 6.47775 3.6133 9.38443 2.61751 12.7466C1.62172 16.1088 1.83541 19.7137 3.22141 22.9346C4.60741 26.1555 7.07804 28.7886 10.2037 30.3759C13.3293 31.9632 16.9122 32.4044 20.3294 31.6227M8.67179 4.53203V10.3363M8.67179 4.53203H2.84301" stroke="#EAAC33" stroke-opacity="0.92" stroke-width="3.19196" stroke-linecap="round" stroke-linejoin="round"/>
<path id="Vector_2" d="M14.9177 21.445V12.555M17.0003 12.555V10.3334M17.0003 23.6667V21.445M14.9177 17H19.083M19.083 17C19.7737 17 20.3337 17.7467 20.3337 18.6667V19.7784C20.3337 20.6984 19.7737 21.445 19.0843 21.445H13.667M19.083 17C19.7723 17 20.3337 16.2534 20.3337 15.3334V14.2217C20.3337 13.3017 19.7737 12.555 19.0843 12.555H13.667" stroke="#EAAC33" stroke-opacity="0.92" stroke-width="3.19196" stroke-linecap="round" stroke-linejoin="round"/>
</g>
</svg>
