<svg width="53" height="38" viewBox="0 0 53 38" fill="none" xmlns="http://www.w3.org/2000/svg">
<g id="Group 3">
<rect id="Rectangle 2" width="53" height="38" rx="8" fill="url(#paint0_linear_42_8090)"/>
<g id="Group 2">
<path id="Vector" d="M34.6009 27.6869C33.5305 28.7594 32.2556 29.6052 30.852 30.174C29.4484 30.7428 27.9449 31.023 26.4309 30.9979C24.9257 31.027 23.4303 30.7484 22.0363 30.1791C20.6423 29.6098 19.3788 28.7618 18.3232 27.6869C17.2429 26.6337 16.3907 25.3691 15.8194 23.9719C15.2481 22.5747 14.9701 21.0747 15.0025 19.5653C15.0025 16.2599 16.1094 13.5064 18.3232 11.3047C19.3795 10.2314 20.6433 9.38495 22.0373 8.81713C23.4313 8.24931 24.9263 7.97203 26.4309 8.00223C27.9443 7.97602 29.4474 8.25489 30.851 8.82224C32.2545 9.38959 33.5298 10.2338 34.6009 11.3047C36.8656 13.5064 37.998 16.2599 37.998 19.5653C38.0273 21.0812 37.7403 22.5866 37.1554 23.9851C36.5704 25.3836 35.7003 26.6444 34.6009 27.6869Z" fill="white"/>
<path id="Vector_2" d="M31.667 18.0769C31.8927 16.5704 30.7449 15.7603 29.1766 15.2198L29.6854 13.1786L28.4434 12.8695L27.9475 14.8569C27.6212 14.7749 27.2863 14.6987 26.952 14.6226L27.4516 12.6223L26.2096 12.3125L25.7007 14.353C25.4304 14.2912 25.1645 14.2308 24.9072 14.1662L24.9086 14.1597L23.1951 13.732L22.8645 15.0588C22.8645 15.0588 23.7867 15.2702 23.7673 15.2831C24.2704 15.4089 24.3609 15.7417 24.3459 16.0062L23.7665 18.3313C23.801 18.3399 23.8456 18.3529 23.8959 18.3723L23.7644 18.3399L22.9522 21.5973C22.8904 21.7497 22.7344 21.979 22.3822 21.892C22.3952 21.91 21.4795 21.667 21.4795 21.667L20.8628 23.0887L22.48 23.4919C22.7804 23.5674 23.0751 23.6465 23.3648 23.7205L22.8509 25.7847L24.0921 26.0938L24.601 24.0526C24.9403 24.1438 25.2694 24.2287 25.5914 24.3092L25.084 26.3418L26.326 26.6508L26.8399 24.5909C28.9588 24.992 30.5515 24.8302 31.2221 22.9141C31.7626 21.3716 31.1955 20.4811 30.0808 19.9011C30.8929 19.7142 31.5039 19.1802 31.667 18.0769ZM28.828 22.0573C28.4449 23.6005 25.8466 22.766 25.0042 22.5568L25.687 19.822C26.5294 20.0326 29.2298 20.4487 28.828 22.0573ZM29.2125 18.0546C28.8625 19.4583 26.7005 18.7446 25.9997 18.5699L26.6178 16.0902C27.3186 16.2649 29.5776 16.5905 29.2125 18.0546Z" fill="#F7931A"/>
</g>
</g>
<defs>
<linearGradient id="paint0_linear_42_8090" x1="9.09265e-09" y1="21" x2="53" y2="22" gradientUnits="userSpaceOnUse">
<stop stop-color="#FD773D"/>
<stop offset="1" stop-color="#EAAC33" stop-opacity="0.92"/>
</linearGradient>
</defs>
</svg>
