<svg width="38" height="38" viewBox="0 0 38 38" fill="none" xmlns="http://www.w3.org/2000/svg">
<g id="Group 6">
<rect id="Rectangle 4" width="38" height="38" rx="8" fill="#EAAC33" fill-opacity="0.2"/>
<path id="Vector" d="M20.1082 27.8672C19.6413 27.8669 19.175 27.8318 18.7132 27.7622C16.6911 27.4424 14.8348 26.4531 13.4419 24.9527C12.0489 23.4523 11.2 21.5277 11.0312 19.4874C10.8623 17.4471 11.3832 15.4091 12.5105 13.7002C13.6378 11.9912 15.3062 10.7101 17.2482 10.0622C17.4561 9.9919 17.6794 9.98095 17.8932 10.0306C18.1069 10.0802 18.3026 10.1885 18.4582 10.3432C18.6269 10.5074 18.7466 10.7153 18.804 10.9436C18.8614 11.1719 18.8542 11.4117 18.7832 11.6362C18.5163 12.5035 18.3969 13.4094 18.4302 14.3162C18.506 15.7383 18.9477 17.1168 19.7126 18.3182C20.4775 19.5195 21.5397 20.5029 22.7962 21.1732C23.9278 21.8165 25.2056 22.1584 26.5072 22.1662C26.7339 22.1693 26.9553 22.2344 27.1476 22.3544C27.3399 22.4745 27.4957 22.6448 27.598 22.847C27.7004 23.0492 27.7456 23.2756 27.7285 23.5016C27.7114 23.7276 27.6328 23.9447 27.5012 24.1292C26.6498 25.2899 25.5366 26.2333 24.252 26.8828C22.9674 27.5323 21.5477 27.8696 20.1082 27.8672ZM17.6282 11.0002C17.6061 11.0002 17.5841 11.004 17.5632 11.0112C16.3475 11.4146 15.2442 12.0994 14.3431 13.0097C13.442 13.92 12.7686 15.0302 12.3775 16.2499C11.9865 17.4697 11.8889 18.7645 12.0928 20.0291C12.2966 21.2936 12.7961 22.4922 13.5507 23.5273C14.3052 24.5623 15.2934 25.4047 16.435 25.9857C17.5765 26.5667 18.839 26.8701 20.1199 26.8711C21.4008 26.872 22.6638 26.5706 23.8062 25.9913C24.9486 25.412 25.9381 24.5711 26.6942 23.5372C26.7184 23.5033 26.7325 23.4632 26.7348 23.4216C26.7371 23.38 26.7275 23.3386 26.7072 23.3022C26.6894 23.2623 26.6605 23.2283 26.624 23.2042C26.5875 23.1801 26.5449 23.1669 26.5012 23.1662C25.0328 23.1578 23.5911 22.7736 22.3132 22.0502C20.9048 21.2963 19.7151 20.1911 18.8596 18.842C18.0041 17.4929 17.5117 15.9456 17.4302 14.3502C17.3943 13.3322 17.5295 12.3154 17.8302 11.3422C17.8451 11.2928 17.8465 11.2404 17.8344 11.1903C17.8223 11.1402 17.797 11.0943 17.7612 11.0572C17.7442 11.039 17.7236 11.0246 17.7007 11.0147C17.6778 11.0049 17.6531 11 17.6282 11.0002Z" fill="#FD773D"/>
</g>
</svg>
