<svg width="39" height="35" viewBox="0 0 39 35" fill="none" xmlns="http://www.w3.org/2000/svg">
<path d="M21.9209 33.654C21.9209 32.9105 22.5236 32.3078 23.2671 32.3078H31.344C32.0874 32.3078 32.6901 32.9105 32.6901 33.654C32.6901 34.3974 32.0874 35.0001 31.344 35.0001H23.2671C22.5236 35.0001 21.9209 34.3974 21.9209 33.654ZM21.9209 28.2693C21.9209 27.5259 22.5236 26.9232 23.2671 26.9232H36.7286C37.4721 26.9232 38.0747 27.5259 38.0747 28.2693C38.0747 29.0128 37.4721 29.6155 36.7286 29.6155H23.2671C22.5236 29.6155 21.9209 29.0128 21.9209 28.2693ZM21.9209 22.8847C21.9209 22.1413 22.5236 21.5386 23.2671 21.5386H36.7286C37.4721 21.5386 38.0747 22.1413 38.0747 22.8847C38.0747 23.6282 37.4721 24.2309 36.7286 24.2309H23.2671C22.5236 24.2309 21.9209 23.6282 21.9209 22.8847Z" fill="url(#paint0_linear_185_4665)"/>
<path d="M18.2105 31.1339C18.7733 30.6471 18.8344 29.796 18.347 29.2337L4.87946 13.696C4.04932 12.7383 3.99958 11.3312 4.76002 10.3173L9.67077 3.76928C10.1792 3.09131 10.9772 2.69231 11.8247 2.69231H26.6323C27.4797 2.69231 28.2777 3.09131 28.7862 3.76928L33.6967 10.317C34.4572 11.3311 34.4074 12.7383 33.577 13.696L31.5213 16.0671C31.0338 16.6294 31.0947 17.4804 31.6574 17.9676C32.2195 18.4543 33.0699 18.3933 33.5568 17.8313L37.0349 13.8172C37.8648 12.8594 37.9143 11.4525 37.1539 10.4387L30.1323 1.07688C29.6239 0.398968 28.8259 0 27.9785 0H10.4784C9.63102 0 8.83307 0.398969 8.32461 1.07688L1.30314 10.4385C0.542673 11.4524 0.59234 12.8594 1.4224 13.8172L16.3119 30.9975C16.7987 31.5592 17.6485 31.6202 18.2105 31.1339Z" fill="url(#paint1_linear_185_4665)"/>
<defs>
<linearGradient id="paint0_linear_185_4665" x1="29.9978" y1="21.5386" x2="29.9978" y2="35.0001" gradientUnits="userSpaceOnUse">
<stop stop-color="#FD773D"/>
<stop offset="1" stop-color="#EAAC33" stop-opacity="0.92"/>
</linearGradient>
<linearGradient id="paint1_linear_185_4665" x1="19.2285" y1="0" x2="19.2285" y2="32.0142" gradientUnits="userSpaceOnUse">
<stop stop-color="#FD773D"/>
<stop offset="1" stop-color="#EAAC33" stop-opacity="0.92"/>
</linearGradient>
</defs>
</svg>
