<svg width="76" height="76" viewBox="0 0 76 76" fill="none" xmlns="http://www.w3.org/2000/svg">
<rect width="76" height="76" rx="16" fill="#EAAC33" fill-opacity="0.1"/>
<rect x="0.5" y="0.5" width="75" height="75" rx="15.5" stroke="#EAAC33" stroke-opacity="0.92"/>
<path d="M53.9218 22.9087C51.0084 21.5528 47.854 20.5687 44.5682 20.0001C44.5394 19.9992 44.5107 20.0046 44.4843 20.0159C44.4578 20.0272 44.4341 20.0442 44.4149 20.0657C44.0206 20.7874 43.5606 21.7278 43.2539 22.4495C39.7688 21.9246 36.2245 21.9246 32.7393 22.4495C32.4326 21.7059 31.9726 20.7874 31.5564 20.0657C31.5345 20.022 31.4688 20.0001 31.4031 20.0001C28.1173 20.5687 24.9848 21.5528 22.0495 22.9087C22.0276 22.9087 22.0057 22.9306 21.9838 22.9525C16.0255 31.8532 14.3826 40.5135 15.1931 49.0862C15.1931 49.13 15.215 49.1737 15.2588 49.1956C19.2018 52.0823 22.9914 53.8319 26.7373 54.9909C26.803 55.0128 26.8687 54.9909 26.8906 54.9472C27.7668 53.7444 28.5554 52.476 29.2345 51.1419C29.2783 51.0545 29.2345 50.967 29.1468 50.9451C27.8982 50.464 26.7153 49.8954 25.5544 49.2393C25.4667 49.1956 25.4667 49.0644 25.5325 48.9988C25.7734 48.8238 26.0144 48.627 26.2553 48.452C26.2991 48.4083 26.3649 48.4083 26.4087 48.4302C33.9441 51.8636 42.071 51.8636 49.5188 48.4302C49.5626 48.4083 49.6284 48.4083 49.6722 48.452C49.9131 48.6489 50.1541 48.8238 50.395 49.0206C50.4827 49.0862 50.4827 49.2175 50.3731 49.2612C49.2341 49.9391 48.0293 50.4859 46.7807 50.967C46.693 50.9889 46.6711 51.0982 46.693 51.1638C47.394 52.4978 48.1826 53.7663 49.0369 54.9691C49.1026 54.9909 49.1683 55.0128 49.2341 54.9909C53.0018 53.8319 56.7914 52.0823 60.7344 49.1956C60.7782 49.1737 60.8001 49.13 60.8001 49.0862C61.7639 39.1795 59.201 30.5848 54.0094 22.9525C53.9875 22.9306 53.9656 22.9087 53.9218 22.9087ZM30.3735 43.8595C28.1173 43.8595 26.2334 41.7819 26.2334 39.2232C26.2334 36.6645 28.0735 34.5869 30.3735 34.5869C32.6955 34.5869 34.5356 36.6864 34.5137 39.2232C34.5137 41.7819 32.6736 43.8595 30.3735 43.8595ZM45.6416 43.8595C43.3853 43.8595 41.5015 41.7819 41.5015 39.2232C41.5015 36.6645 43.3415 34.5869 45.6416 34.5869C47.9635 34.5869 49.8036 36.6864 49.7817 39.2232C49.7817 41.7819 47.9635 43.8595 45.6416 43.8595Z" fill="white"/>
</svg>
