<svg width="24" height="24" viewBox="0 0 24 24" fill="none" xmlns="http://www.w3.org/2000/svg">
<path d="M23.4025 11.7013C23.4025 18.1637 18.1637 23.4025 11.7013 23.4025C5.23884 23.4025 0 18.1637 0 11.7013C0 5.23884 5.23884 0 11.7013 0C18.1637 0 23.4025 5.23884 23.4025 11.7013Z" fill="#0C192B"/>
<path d="M11.1441 5.57203L8.00225 9.8781L6.68644 16.2436L11.1441 18.9449L15.6017 16.2436L14.259 9.85136L11.1441 5.57203ZM7.41148 15.9494L8.40504 11.1084L10.6607 17.9286L7.41148 15.9494ZM8.72728 10.0118L11.1441 6.69536L13.5609 10.0118L11.1441 17.2867L8.72728 10.0118ZM11.6006 17.9286L13.8562 11.1084L14.8498 15.9494L11.6006 17.9286Z" fill="white"/>
</svg>
