<svg width="24" height="24" viewBox="0 0 24 24" fill="none" xmlns="http://www.w3.org/2000/svg">
<path d="M19.9439 20.0315C18.8548 21.1227 17.5576 21.9833 16.1294 22.5621C14.7013 23.1409 13.1714 23.426 11.631 23.4004C10.0994 23.43 8.57788 23.1466 7.15944 22.5673C5.74101 21.988 4.45545 21.1252 3.38136 20.0315C2.28219 18.9598 1.415 17.6731 0.833735 16.2514C0.252466 14.8298 -0.030448 13.3035 0.00259413 11.7677C0.00259413 8.40449 1.12885 5.60279 3.38136 3.36258C4.45618 2.27044 5.74207 1.40919 7.16047 0.831429C8.57887 0.253671 10.1 -0.0284617 11.631 0.00226541C13.1708 -0.0243994 14.7003 0.259349 16.1284 0.836629C17.5565 1.41391 18.8541 2.27293 19.9439 3.36258C22.2483 5.60279 23.4005 8.40449 23.4005 11.7677C23.4303 13.3102 23.1383 14.8419 22.5431 16.2649C21.9479 17.6878 21.0626 18.9707 19.9439 20.0315Z" fill="#C8C8C8"/>
<path d="M11.7013 3.6776L7.02075 11.6537L11.7013 9.46787V3.6776Z" fill="#8B8B8B"/>
<path d="M11.7013 9.46782L7.02075 11.6536L11.7013 14.4933V9.46782Z" fill="#393939"/>
<path d="M11.7012 3.67758V9.46786L16.3772 11.6537L11.7012 3.67758Z" fill="#343434"/>
<path d="M11.7012 9.46782V14.4933L16.3772 11.6536L11.7012 9.46782Z" fill="#161616"/>
<path d="M7.02075 12.564L11.7013 19.3386V15.406L7.02075 12.564Z" fill="#8B8B8B"/>
<path d="M16.3817 12.564L11.7012 15.406V19.3386L16.3817 12.564Z" fill="#343434"/>
</svg>
