<svg width="76" height="76" viewBox="0 0 76 76" fill="none" xmlns="http://www.w3.org/2000/svg">
<rect width="76" height="76" rx="16" fill="#EAAC33" fill-opacity="0.1"/>
<rect x="0.5" y="0.5" width="75" height="75" rx="15.5" stroke="#EAAC33" stroke-opacity="0.92"/>
<path d="M28.8416 16.7249C30.4621 17.284 32.0037 18.0569 33.4271 19.0238C35.4373 18.5006 37.5043 18.2377 39.5792 18.2414C41.7219 18.2414 43.7892 18.5139 45.7269 19.0216C47.1498 18.0557 48.6906 17.2835 50.3103 16.7249C51.8143 16.204 53.9571 15.3601 55.2302 16.7953C56.0933 17.7711 56.3091 19.4063 56.4623 20.6546C56.635 22.048 56.676 23.8634 56.2228 25.6657C57.9556 27.9448 59 30.6635 59 33.6262C59 38.1141 56.6134 42.0108 53.081 44.7098C51.381 45.9923 49.4955 46.9977 47.4921 47.69C47.9539 48.7669 48.2107 49.9582 48.2107 51.2087V57.8022C48.2107 58.3851 47.9833 58.9441 47.5786 59.3563C47.174 59.7684 46.6251 60 46.0528 60H33.1056C32.5333 60 31.9844 59.7684 31.5797 59.3563C31.1751 58.9441 30.9477 58.3851 30.9477 57.8022V55.6241C28.8869 55.8813 27.1585 55.6527 25.689 55.0175C24.1526 54.3538 23.0823 53.3252 22.2774 52.3406C21.5135 51.4087 20.6806 49.3076 19.4765 48.8988C19.2076 48.8076 18.9589 48.6633 18.7447 48.4743C18.5305 48.2852 18.355 48.055 18.2282 47.7968C17.972 47.2754 17.9297 46.6717 18.1105 46.1186C18.2914 45.5654 18.6806 45.1081 19.1925 44.8472C19.7044 44.5862 20.2971 44.5432 20.8402 44.7274C22.2774 45.2153 23.2139 46.2702 23.8548 47.1186C24.8906 48.4812 25.7321 50.2615 27.3721 50.9714C28.0475 51.2637 29.038 51.4549 30.5873 51.2395L30.9477 51.1648C30.9518 49.9687 31.1964 48.7862 31.6663 47.69C29.6629 46.9977 27.7774 45.9923 26.0774 44.7098C22.545 42.0108 20.1584 38.1163 20.1584 33.6262C20.1584 30.6679 21.2006 27.9514 22.9291 25.6744C22.4759 23.8722 22.5148 22.0524 22.6874 20.6568L22.6982 20.5733C22.8557 19.2942 23.0391 17.7887 23.9195 16.7953C25.1927 15.3601 27.3376 16.2062 28.8395 16.7271L28.8416 16.7249Z" fill="white"/>
</svg>
