<svg width="29" height="35" viewBox="0 0 29 35" fill="none" xmlns="http://www.w3.org/2000/svg">
<path d="M29 15.9091C29 24.7386 22.8133 32.9955 14.5 35C6.18667 32.9955 0 24.7386 0 15.9091V6.36364L14.5 0L29 6.36364V15.9091ZM14.5 31.8182C20.5417 30.2273 25.7778 23.1318 25.7778 16.2591V8.43182L14.5 3.46818L3.22222 8.43182V16.2591C3.22222 23.1318 8.45833 30.2273 14.5 31.8182ZM19.0111 15.9091V13.5227C19.0111 11.2955 16.7556 9.54545 14.5 9.54545C12.2444 9.54545 9.98889 11.2955 9.98889 13.5227V15.9091C9.02222 15.9091 8.05556 16.8636 8.05556 17.8182V23.3864C8.05556 24.5 9.02222 25.4545 9.98889 25.4545H18.85C19.9778 25.4545 20.9444 24.5 20.9444 23.5455V17.9773C20.9444 16.8636 19.9778 15.9091 19.0111 15.9091ZM16.9167 15.9091H12.0833V13.5227C12.0833 12.25 13.2111 11.4545 14.5 11.4545C15.7889 11.4545 16.9167 12.25 16.9167 13.5227V15.9091Z" fill="url(#paint0_linear_204_1225)"/>
<defs>
<linearGradient id="paint0_linear_204_1225" x1="14.5" y1="0" x2="14.5" y2="35" gradientUnits="userSpaceOnUse">
<stop stop-color="#FD773D"/>
<stop offset="1" stop-color="#EAAC33" stop-opacity="0.92"/>
</linearGradient>
</defs>
</svg>
