<svg width="19" height="18" viewBox="0 0 19 18" fill="none" xmlns="http://www.w3.org/2000/svg">
<path id="Vector" d="M8.70833 8.6087V0.782609C8.70833 0.575048 8.79174 0.375989 8.94021 0.229221C9.08867 0.0824533 9.29004 0 9.5 0C9.70996 0 9.91133 0.0824533 10.0598 0.229221C10.2083 0.375989 10.2917 0.575048 10.2917 0.782609V8.6087C10.2917 8.81626 10.2083 9.01532 10.0598 9.16208C9.91133 9.30885 9.70996 9.3913 9.5 9.3913C9.29004 9.3913 9.08867 9.30885 8.94021 9.16208C8.79174 9.01532 8.70833 8.81626 8.70833 8.6087ZM14.6824 0.909783C14.5066 0.799926 14.2941 0.762889 14.0909 0.806678C13.8877 0.850467 13.71 0.971565 13.5964 1.14379C13.4828 1.31602 13.4423 1.52553 13.4836 1.72704C13.525 1.92855 13.645 2.10587 13.8176 2.22065C16.1045 3.69489 17.4167 6.02315 17.4167 8.6087C17.4167 10.6843 16.5826 12.6749 15.0979 14.1426C13.6133 15.6103 11.5996 16.4348 9.5 16.4348C7.40037 16.4348 5.38673 15.6103 3.90207 14.1426C2.41741 12.6749 1.58333 10.6843 1.58333 8.6087C1.58333 6.02315 2.89552 3.69489 5.18245 2.22065C5.35502 2.10587 5.47497 1.92855 5.51635 1.72704C5.55774 1.52553 5.51723 1.31602 5.4036 1.14379C5.28997 0.971565 5.11234 0.850467 4.90911 0.806678C4.70588 0.762889 4.49338 0.799926 4.31755 0.909783C1.57344 2.67848 0 5.48413 0 8.6087C3.75443e-08 11.0994 1.00089 13.4881 2.78249 15.2494C4.56408 17.0106 6.98044 18 9.5 18C12.0196 18 14.4359 17.0106 16.2175 15.2494C17.9991 13.4881 19 11.0994 19 8.6087C19 5.48413 17.4266 2.67848 14.6824 0.909783Z" fill="#FD773D"/>
</svg>
