<svg width="32" height="32" viewBox="0 0 32 32" fill="none" xmlns="http://www.w3.org/2000/svg">
<circle cx="16" cy="16" r="16" fill="#E42575"/>
<path d="M21.5232 12.4305L22.9417 14.0971C23.1041 14.2843 23.2481 14.4383 23.3063 14.5259C23.7306 14.9475 23.9684 15.5173 23.9681 16.1111C23.9282 16.8115 23.4717 17.2886 23.049 17.7988L22.0563 18.9643L21.5386 19.5681C21.5199 19.589 21.508 19.6147 21.5041 19.6422C21.5002 19.6697 21.5045 19.6976 21.5166 19.7227C21.5287 19.7477 21.5479 19.7687 21.5719 19.7831C21.596 19.7975 21.6238 19.8047 21.6519 19.8037H26.8266C27.617 19.8037 28.6127 20.4679 28.5545 21.4764C28.5529 21.9348 28.3674 22.3739 28.0385 22.698C27.7096 23.0221 27.264 23.2049 26.7989 23.2065H18.6954C18.1623 23.2065 16.7284 23.2639 16.3271 22.041C16.2418 21.7855 16.2301 21.5116 16.2935 21.25C16.4101 20.863 16.5946 20.4992 16.8388 20.1751C17.2463 19.5712 17.6874 18.9673 18.1225 18.3816C18.6831 17.6147 19.2591 16.8719 19.8259 16.0899C19.846 16.0644 19.857 16.0331 19.857 16.0008C19.857 15.9686 19.846 15.9372 19.8259 15.9118L17.7671 13.4963C17.7537 13.4788 17.7363 13.4646 17.7164 13.4548C17.6964 13.445 17.6745 13.4399 17.6522 13.4399C17.6299 13.4399 17.6079 13.445 17.588 13.4548C17.5681 13.4646 17.5507 13.4788 17.5373 13.4963C16.9858 14.23 14.5716 17.4788 14.0569 18.137C13.5422 18.7952 12.2738 18.8314 11.5722 18.137L8.35226 14.9516C8.33168 14.9313 8.30545 14.9174 8.27687 14.9118C8.2483 14.9062 8.21868 14.909 8.19176 14.92C8.16485 14.931 8.14185 14.9497 8.1257 14.9736C8.10954 14.9975 8.10095 15.0256 8.10103 15.0543V21.1805C8.1086 21.6152 7.97798 22.0414 7.72745 22.3993C7.47692 22.7572 7.11904 23.0289 6.70396 23.1763C6.43875 23.2672 6.1553 23.2944 5.87727 23.2555C5.59923 23.2166 5.33466 23.1127 5.10562 22.9526C4.87658 22.7924 4.6897 22.5807 4.56057 22.3349C4.43144 22.0892 4.36379 21.8165 4.36328 21.5398V10.5253C4.38174 10.1284 4.52667 9.74725 4.77747 9.43613C5.02826 9.125 5.37218 8.89969 5.76034 8.7922C6.0933 8.70478 6.44379 8.70565 6.77629 8.79473C7.10879 8.88381 7.4115 9.05793 7.65373 9.29944L12.6047 14.1847C12.6195 14.1995 12.6375 14.211 12.6572 14.2182C12.6771 14.2255 12.6983 14.2283 12.7193 14.2266C12.7404 14.2249 12.7607 14.2186 12.7791 14.2082C12.7974 14.1979 12.8132 14.1837 12.8253 14.1666L16.3425 9.36889C16.505 9.17412 16.7087 9.01672 16.9395 8.90772C17.1703 8.79871 17.4223 8.74074 17.6783 8.73785H26.8266C27.0769 8.73826 27.3243 8.79134 27.5522 8.89355C27.78 8.99577 27.9831 9.14475 28.1479 9.33054C28.3126 9.51633 28.4351 9.73465 28.5074 9.97089C28.5796 10.2071 28.5999 10.4558 28.5667 10.7004C28.5023 11.1247 28.2839 11.5115 27.952 11.7891C27.6202 12.0667 27.1974 12.2163 26.7622 12.2101H21.6396C21.6139 12.2107 21.5888 12.2181 21.5669 12.2315C21.5451 12.245 21.5273 12.2639 21.5154 12.2864C21.5035 12.3089 21.498 12.3342 21.4994 12.3595C21.5007 12.3848 21.509 12.4094 21.5232 12.4305Z" fill="white"/>
</svg>
