<svg width="21" height="30" viewBox="0 0 21 30" fill="none" xmlns="http://www.w3.org/2000/svg">
<path d="M10.5 0C4.70334 0 0 4.31987 0 9.64286C0 18.2143 10.5 30 10.5 30C10.5 30 21 18.2143 21 9.64286C21 4.31987 16.2967 0 10.5 0ZM10.5 15C9.66932 15 8.85729 14.7486 8.1666 14.2777C7.47592 13.8068 6.93759 13.1375 6.61971 12.3544C6.30182 11.5712 6.21864 10.7095 6.3807 9.87818C6.54276 9.04684 6.94277 8.2832 7.53015 7.68383C8.11753 7.08446 8.8659 6.67628 9.68062 6.51092C10.4953 6.34555 11.3398 6.43043 12.1073 6.7548C12.8747 7.07918 13.5307 7.62849 13.9922 8.33327C14.4537 9.03805 14.7 9.86665 14.7 10.7143C14.6988 11.8505 14.2559 12.9399 13.4685 13.7434C12.6811 14.5468 11.6135 14.9988 10.5 15Z" fill="#FD773D"/>
</svg>
