<svg width="28" height="39" viewBox="0 0 28 39" fill="none" xmlns="http://www.w3.org/2000/svg">
<path d="M27.648 13.6533C27.6489 11.3036 27.0432 8.99356 25.8894 6.94668C24.7357 4.8998 23.0731 3.18543 21.0625 1.96953C19.052 0.753634 16.7615 0.077389 14.413 0.00625686C12.0644 -0.0648753 9.73728 0.471516 7.65681 1.56351C5.57634 2.6555 3.81302 4.2661 2.53753 6.23941C1.26205 8.21272 0.517614 10.4819 0.376279 12.8273C0.234944 15.1727 0.701501 17.5148 1.73079 19.627C2.76007 21.7392 4.31722 23.5499 6.2515 24.8838L0.351565 35.1005L4.7502 35.2818L7.10549 39L13.8633 27.2937C13.9101 27.2937 13.953 27.3015 13.9998 27.3015C14.0466 27.3015 14.0895 27.2957 14.1363 27.2937L20.8941 39L23.2962 35.3618L27.648 35.1005L21.7481 24.8838C23.5684 23.6305 25.0566 21.9533 26.0844 19.9969C27.1123 18.0404 27.6489 15.8633 27.648 13.6533ZM4.25106 13.6533C4.25106 11.7251 4.82281 9.84033 5.89402 8.23716C6.96523 6.63399 8.48777 5.38447 10.2691 4.64661C12.0505 3.90875 14.0106 3.71569 15.9017 4.09185C17.7928 4.468 19.5298 5.39648 20.8932 6.75987C22.2566 8.12325 23.1851 9.86031 23.5612 11.7514C23.9374 13.6425 23.7443 15.6026 23.0065 17.3839C22.2686 19.1653 21.0191 20.6878 19.4159 21.7591C17.8127 22.8303 15.9279 23.402 13.9998 23.402C11.4143 23.402 8.93465 22.3749 7.1064 20.5467C5.27816 18.7184 4.25106 16.2388 4.25106 13.6533Z" fill="url(#paint0_linear_204_1226)"/>
<path d="M13.9996 19.5022C17.2301 19.5022 19.8489 16.8834 19.8489 13.653C19.8489 10.4225 17.2301 7.80371 13.9996 7.80371C10.7692 7.80371 8.15039 10.4225 8.15039 13.653C8.15039 16.8834 10.7692 19.5022 13.9996 19.5022Z" fill="url(#paint1_linear_204_1226)"/>
<defs>
<linearGradient id="paint0_linear_204_1226" x1="13.9998" y1="0" x2="13.9998" y2="39" gradientUnits="userSpaceOnUse">
<stop stop-color="#FD773D"/>
<stop offset="1" stop-color="#EAAC33" stop-opacity="0.92"/>
</linearGradient>
<linearGradient id="paint1_linear_204_1226" x1="13.9996" y1="7.80371" x2="13.9996" y2="19.5022" gradientUnits="userSpaceOnUse">
<stop stop-color="#FD773D"/>
<stop offset="1" stop-color="#EAAC33" stop-opacity="0.92"/>
</linearGradient>
</defs>
</svg>
