<svg width="119" height="120" viewBox="0 0 119 120" fill="none" xmlns="http://www.w3.org/2000/svg">
<path id="Vector" d="M102.544 18.5474L113.327 6.63677C113.715 6.27503 114.025 5.8361 114.235 5.34794C114.445 4.85977 114.552 4.33305 114.548 3.80133C114.544 3.26962 114.43 2.74455 114.212 2.25956C113.995 1.77458 113.679 1.34031 113.285 0.984403C112.89 0.628497 112.427 0.358757 111.923 0.192357C111.419 0.025958 110.886 -0.0334526 110.358 0.0179079C109.83 0.0692684 109.318 0.230273 108.856 0.490673C108.393 0.751073 107.99 1.10516 107.671 1.53039L96.8886 13.39C84.9893 4.00576 69.984 -0.510959 54.8947 0.74946C39.8055 2.00988 25.7533 8.9538 15.5682 20.1827C5.38311 31.4117 -0.178178 46.0914 0.00435504 61.2654C0.186888 76.4395 6.09968 90.9806 16.5519 101.96L5.76945 113.871C5.19639 114.636 4.92972 115.588 5.02191 116.54C5.11411 117.492 5.55849 118.375 6.26762 119.016C6.97676 119.656 7.8993 120.007 8.85374 120C9.80819 119.993 10.7254 119.628 11.425 118.977L22.2075 107.092C34.1081 116.438 49.0962 120.925 64.1618 119.652C79.2274 118.379 93.2545 111.441 103.426 100.23C113.598 89.0194 119.16 74.3668 118.996 59.2151C118.833 44.0635 112.955 29.5349 102.544 18.5474ZM7.32345 60.2538C7.31476 50.4393 10.0619 40.8205 15.2509 32.4971C20.4398 24.1736 27.8611 17.4816 36.6662 13.1862C45.4712 8.89078 55.3046 7.1653 65.042 8.20706C74.7795 9.24882 84.0279 13.0158 91.7298 19.0772L21.7107 96.2729C12.4706 86.5682 7.31779 73.6679 7.32345 60.2538ZM59.548 112.594C47.8739 112.603 36.5372 108.67 27.3662 101.43L97.3853 24.2346C104.427 31.6502 109.143 40.974 110.948 51.0501C112.753 61.1263 111.568 71.5117 107.539 80.9192C103.511 90.3267 96.8163 98.3425 88.2854 103.973C79.7546 109.603 69.7626 112.601 59.548 112.594Z" fill="#7E7E7E"/>
</svg>
