<svg width="31" height="33" viewBox="0 0 31 33" fill="none" xmlns="http://www.w3.org/2000/svg">
<path d="M24.1111 6.94737C23.6543 6.94737 23.2163 6.76438 22.8933 6.43866C22.5703 6.11294 22.3889 5.67117 22.3889 5.21053C22.3889 4.74989 22.5703 4.30812 22.8933 3.98239C23.2163 3.65667 23.6543 3.47368 24.1111 3.47368C24.5679 3.47368 25.0059 3.65667 25.3289 3.98239C25.6519 4.30812 25.8333 4.74989 25.8333 5.21053C25.8333 5.67117 25.6519 6.11294 25.3289 6.43866C25.0059 6.76438 24.5679 6.94737 24.1111 6.94737ZM24.1111 10.4211C25.4814 10.4211 26.7956 9.87209 27.7645 8.89493C28.7334 7.91776 29.2778 6.59244 29.2778 5.21053C29.2778 3.82861 28.7334 2.50329 27.7645 1.52613C26.7956 0.548965 25.4814 0 24.1111 0C22.7408 0 21.4267 0.548965 20.4577 1.52613C19.4888 2.50329 18.9444 3.82861 18.9444 5.21053C18.9444 6.59244 19.4888 7.91776 20.4577 8.89493C21.4267 9.87209 22.7408 10.4211 24.1111 10.4211ZM6.88889 1.73684C5.06184 1.73684 3.30963 2.46879 2.01771 3.77168C0.725791 5.07456 0 6.84165 0 8.68421V12.1579H3.44444V8.68421C3.44444 7.76293 3.80734 6.87939 4.4533 6.22794C5.09926 5.5765 5.97537 5.21053 6.88889 5.21053H12.0556V1.73684H6.88889ZM24.1111 33C25.9382 33 27.6904 32.268 28.9823 30.9652C30.2742 29.6623 31 27.8952 31 26.0526V22.5789H27.5556V26.0526C27.5556 26.9739 27.1927 27.8575 26.5467 28.5089C25.9007 29.1603 25.0246 29.5263 24.1111 29.5263H18.9444V33H24.1111ZM8.61111 19.1053C8.61111 18.6446 8.42966 18.2029 8.10668 17.8771C7.7837 17.5514 7.34565 17.3684 6.88889 17.3684C6.43213 17.3684 5.99407 17.5514 5.67109 17.8771C5.34811 18.2029 5.16667 18.6446 5.16667 19.1053C5.16667 19.5659 5.34811 20.0077 5.67109 20.3334C5.99407 20.6591 6.43213 20.8421 6.88889 20.8421C7.34565 20.8421 7.7837 20.6591 8.10668 20.3334C8.42966 20.0077 8.61111 19.5659 8.61111 19.1053ZM12.0556 19.1053C12.0556 19.7895 11.9219 20.4671 11.6623 21.0992C11.4026 21.7314 11.022 22.3058 10.5423 22.7897C10.0625 23.2735 9.49294 23.6573 8.86609 23.9192C8.23924 24.181 7.56739 24.3158 6.88889 24.3158C6.21039 24.3158 5.53854 24.181 4.91169 23.9192C4.28484 23.6573 3.71527 23.2735 3.2355 22.7897C2.75573 22.3058 2.37516 21.7314 2.11551 21.0992C1.85586 20.4671 1.72222 19.7895 1.72222 19.1053C1.72222 17.7233 2.26657 16.398 3.2355 15.4209C4.20444 14.4437 5.5186 13.8947 6.88889 13.8947C8.25917 13.8947 9.57334 14.4437 10.5423 15.4209C11.5112 16.398 12.0556 17.7233 12.0556 19.1053ZM24.1111 15.6316C23.1976 15.6316 22.3215 15.9976 21.6755 16.649C21.0296 17.3004 20.6667 18.184 20.6667 19.1053H17.2222C17.2222 17.2627 17.948 15.4956 19.2399 14.1927C20.5318 12.8898 22.2841 12.1579 24.1111 12.1579C25.9382 12.1579 27.6904 12.8898 28.9823 14.1927C30.2742 15.4956 31 17.2627 31 19.1053H27.5556C27.5556 18.184 27.1927 17.3004 26.5467 16.649C25.9007 15.9976 25.0246 15.6316 24.1111 15.6316ZM3.44444 33C3.44444 32.0787 3.80734 31.1952 4.4533 30.5437C5.09926 29.8923 5.97537 29.5263 6.88889 29.5263C7.80241 29.5263 8.67852 29.8923 9.32448 30.5437C9.97044 31.1952 10.3333 32.0787 10.3333 33H13.7778C13.7778 31.1574 13.052 29.3904 11.7601 28.0875C10.4682 26.7846 8.71594 26.0526 6.88889 26.0526C5.06184 26.0526 3.30963 26.7846 2.01771 28.0875C0.725791 29.3904 0 31.1574 0 33H3.44444Z" fill="url(#paint0_linear_204_1224)"/>
<defs>
<linearGradient id="paint0_linear_204_1224" x1="15.5" y1="0" x2="15.5" y2="33" gradientUnits="userSpaceOnUse">
<stop stop-color="#FD773D"/>
<stop offset="1" stop-color="#EAAC33" stop-opacity="0.92"/>
</linearGradient>
</defs>
</svg>
