<svg width="40" height="39" viewBox="0 0 40 39" fill="none" xmlns="http://www.w3.org/2000/svg">
<path d="M26.667 25.3333C26.667 23.4917 21.4437 22 15.0003 22M26.667 25.3333C26.667 27.175 21.4437 28.6667 15.0003 28.6667C8.55699 28.6667 3.33366 27.175 3.33366 25.3333M26.667 25.3333V33.5617C26.667 35.46 21.4437 37 15.0003 37C8.55699 37 3.33366 35.4617 3.33366 33.5617V25.3333M26.667 25.3333C33.0403 25.3333 38.3337 23.6883 38.3337 22V5.33333M15.0003 22C8.55699 22 3.33366 23.4917 3.33366 25.3333M15.0003 22C7.63699 22 1.66699 20.355 1.66699 18.6667V10.3333M15.0003 7C7.63699 7 1.66699 8.49167 1.66699 10.3333M1.66699 10.3333C1.66699 12.175 7.63699 13.6667 15.0003 13.6667C15.0003 15.355 20.422 17 26.7953 17C33.167 17 38.3337 15.355 38.3337 13.6667M38.3337 5.33333C38.3337 3.49167 33.167 2 26.7953 2C20.422 2 15.257 3.49167 15.257 5.33333M38.3337 5.33333C38.3337 7.175 33.167 8.66667 26.7953 8.66667C20.4237 8.66667 15.257 7.175 15.257 5.33333M15.257 5.33333V22.2767" stroke="url(#paint0_linear_185_4664)" stroke-width="2.5"/>
<defs>
<linearGradient id="paint0_linear_185_4664" x1="20.0003" y1="2" x2="20.0003" y2="37" gradientUnits="userSpaceOnUse">
<stop stop-color="#FD773D"/>
<stop offset="1" stop-color="#EAAC33" stop-opacity="0.92"/>
</linearGradient>
</defs>
</svg>
