<svg width="27" height="27" viewBox="0 0 27 27" fill="none" xmlns="http://www.w3.org/2000/svg">
<path d="M26.504 21.1498L20.343 15.5481C20.0518 15.2834 19.6691 15.1422 19.2757 15.1544C18.8824 15.1666 18.5091 15.3311 18.2348 15.6133L14.6079 19.3432C13.7349 19.1765 11.9799 18.6293 10.1732 16.8273C8.36662 15.0192 7.81949 13.2595 7.65732 12.3926L11.3842 8.76427C11.6667 8.49014 11.8315 8.11683 11.8437 7.72336C11.8559 7.32989 11.7144 6.94712 11.4494 6.65606L5.84919 0.496651C5.58402 0.20468 5.21548 0.0275784 4.82183 0.00295814C4.42819 -0.0216622 4.04045 0.108139 3.74097 0.364794L0.452081 3.18533C0.190048 3.44831 0.0336489 3.79832 0.0125523 4.16896C-0.010182 4.54786 -0.443648 13.5233 6.51606 20.4859C12.5876 26.5559 20.193 27 22.2875 27C22.5937 27 22.7816 26.9909 22.8317 26.9879C23.2022 26.9671 23.5521 26.81 23.8138 26.5468L26.6328 23.2565C26.8905 22.9579 27.0212 22.5705 26.9972 22.1769C26.9731 21.7833 26.7961 21.4147 26.504 21.1498Z" fill="#ED294D"/>
</svg>
