<svg width="20" height="21" viewBox="0 0 20 21" fill="none" xmlns="http://www.w3.org/2000/svg">
<path d="M18.9065 12.859C18.7204 12.5713 18.4558 12.2837 18.1129 12.1016C17.8386 11.9674 17.6623 11.7469 17.5055 11.488C17.0058 10.6636 17.2997 9.58024 18.1325 9.09131C19.1123 8.54486 19.4258 7.32733 18.8575 6.37823L18.2011 5.24698C17.6427 4.29788 16.418 3.96234 15.448 4.51838C14.5859 4.97855 13.4788 4.67177 12.9791 3.85689C12.8224 3.58845 12.7342 3.30085 12.7538 3.01324C12.7832 2.63935 12.6656 2.28464 12.4892 1.99703C12.1267 1.40265 11.4703 1 10.7453 1H9.36388C8.64867 1.01917 7.99225 1.40265 7.62975 1.99703C7.4436 2.28464 7.33583 2.63935 7.35542 3.01324C7.37502 3.30085 7.28684 3.58845 7.13008 3.85689C6.63042 4.67177 5.52331 4.97855 4.67094 4.51838C3.69121 3.96234 2.47633 4.29788 1.90809 5.24698L1.25166 6.37823C0.693213 7.32733 1.00673 8.54486 1.97667 9.09131C2.80944 9.58024 3.10337 10.6636 2.6135 11.488C2.44694 11.7469 2.27059 11.9674 1.99626 12.1016C1.66315 12.2837 1.36923 12.5713 1.21247 12.859C0.849971 13.4533 0.869566 14.2011 1.23207 14.8243L1.90809 15.9747C2.27059 16.5882 2.94661 16.9717 3.65202 16.9717C3.98513 16.9717 4.37702 16.8758 4.69054 16.6841C4.93547 16.5211 5.22939 16.4636 5.55271 16.4636C6.52265 16.4636 7.33583 17.2593 7.35542 18.2084C7.35542 19.3109 8.25678 20.1737 9.39327 20.1737H10.7257C11.8524 20.1737 12.7538 19.3109 12.7538 18.2084C12.7832 17.2593 13.5963 16.4636 14.5663 16.4636C14.8798 16.4636 15.1737 16.5211 15.4285 16.6841C15.742 16.8758 16.1241 16.9717 16.467 16.9717C17.1626 16.9717 17.8386 16.5882 18.2011 15.9747L18.8869 14.8243C19.2396 14.1819 19.269 13.4533 18.9065 12.859" stroke="#FD773D" stroke-width="1.5"/>
<path d="M10.0696 13.2999C8.53138 13.2999 7.28711 12.1015 7.28711 10.5964C7.28711 9.09125 8.53138 7.8833 10.0696 7.8833C11.6077 7.8833 12.8226 9.09125 12.8226 10.5964C12.8226 12.1015 11.6077 13.2999 10.0696 13.2999" stroke="#FD773D" stroke-width="1.5"/>
</svg>
