<svg width="21" height="22" viewBox="0 0 21 22" fill="none" xmlns="http://www.w3.org/2000/svg">
<path opacity="0.4" d="M19.8293 13.096C19.6238 12.7783 19.3316 12.4607 18.953 12.2596C18.65 12.1114 18.4553 11.8679 18.2822 11.582C17.7304 10.6716 18.055 9.47524 18.9746 8.93531C20.0565 8.33186 20.4028 6.98733 19.7752 5.93923L19.0503 4.68998C18.4336 3.64188 17.0812 3.27134 16.0101 3.88538C15.058 4.39355 13.8354 4.05477 13.2836 3.15489C13.1105 2.85845 13.0132 2.54085 13.0348 2.22324C13.0673 1.81035 12.9374 1.41864 12.7427 1.10103C12.3424 0.444648 11.6175 0 10.8168 0H9.29131C8.5015 0.0211737 7.77661 0.444648 7.37629 1.10103C7.17073 1.41864 7.05171 1.81035 7.07335 2.22324C7.09499 2.54085 6.99762 2.85845 6.82451 3.15489C6.27272 4.05477 5.05014 4.39355 4.10886 3.88538C3.02692 3.27134 1.68533 3.64188 1.05781 4.68998L0.332913 5.93923C-0.283788 6.98733 0.0624303 8.33186 1.13354 8.93531C2.05319 9.47524 2.37777 10.6716 1.8368 11.582C1.65287 11.8679 1.45812 12.1114 1.15518 12.2596C0.787325 12.4607 0.462745 12.7783 0.289636 13.096C-0.110679 13.7523 -0.0890402 14.5781 0.311275 15.2663L1.05781 16.5367C1.45812 17.2142 2.20466 17.6377 2.98365 17.6377C3.3515 17.6377 3.78428 17.5318 4.1305 17.3201C4.40098 17.1401 4.72556 17.0766 5.0826 17.0766C6.15371 17.0766 7.05171 17.9553 7.07335 19.0034C7.07335 20.2209 8.06873 21.1737 9.32377 21.1737H10.7952C12.0394 21.1737 13.0348 20.2209 13.0348 19.0034C13.0673 17.9553 13.9653 17.0766 15.0364 17.0766C15.3826 17.0766 15.7072 17.1401 15.9885 17.3201C16.3347 17.5318 16.7566 17.6377 17.1353 17.6377C17.9035 17.6377 18.65 17.2142 19.0503 16.5367L19.8077 15.2663C20.1972 14.5569 20.2297 13.7523 19.8293 13.096Z" fill="#8A92A6"/>
<path d="M10.0707 13.5829C8.3721 13.5829 6.99805 12.2595 6.99805 10.5974C6.99805 8.93526 8.3721 7.60132 10.0707 7.60132C11.7694 7.60132 13.111 8.93526 13.111 10.5974C13.111 12.2595 11.7694 13.5829 10.0707 13.5829Z" fill="#8A92A6"/>
</svg>
