<svg width="22" height="22" viewBox="0 0 22 22" fill="none" xmlns="http://www.w3.org/2000/svg">
<g id="Group">
<path id="Vector" d="M9.95019 14.6067C9.55964 14.9973 8.92637 14.9973 8.53584 14.6067L5.70694 11.7771C5.31649 11.3866 5.31653 10.7535 5.70702 10.363C6.0975 9.9725 6.73056 9.97245 7.1211 10.3629L8.53583 11.7771C8.9264 12.1675 9.55952 12.1674 9.94998 11.7769L14.1919 7.53423C14.5824 7.14364 15.216 7.144 15.6066 7.53455C15.9971 7.92506 15.9975 8.55857 15.607 8.9491L9.95019 14.6067Z" fill="#51F876"/>
<path id="Vector_2" fill-rule="evenodd" clip-rule="evenodd" d="M0 11C0 4.925 4.925 0 11 0C17.075 0 22 4.925 22 11C22 17.075 17.075 22 11 22C4.925 22 0 17.075 0 11ZM11 20C9.8181 20 8.64778 19.7672 7.55585 19.3149C6.46392 18.8626 5.47177 18.1997 4.63604 17.364C3.80031 16.5282 3.13738 15.5361 2.68508 14.4442C2.23279 13.3522 2 12.1819 2 11C2 9.8181 2.23279 8.64778 2.68508 7.55585C3.13738 6.46392 3.80031 5.47177 4.63604 4.63604C5.47177 3.80031 6.46392 3.13738 7.55585 2.68508C8.64778 2.23279 9.8181 2 11 2C13.3869 2 15.6761 2.94821 17.364 4.63604C19.0518 6.32387 20 8.61305 20 11C20 13.3869 19.0518 15.6761 17.364 17.364C15.6761 19.0518 13.3869 20 11 20Z" fill="#51F876"/>
</g>
</svg>
