<svg width="33" height="33" viewBox="0 0 33 33" fill="none" xmlns="http://www.w3.org/2000/svg">
<path d="M22.6271 17.6704C24.2528 16.3984 25.4393 14.6541 26.0218 12.6803C26.6042 10.7064 26.5535 8.60105 25.8767 6.65715C25.2 4.71326 23.9309 3.02747 22.2459 1.83432C20.5609 0.641175 18.5439 0 16.4754 0C14.4069 0 12.3899 0.641175 10.7049 1.83432C9.01995 3.02747 7.75081 4.71326 7.07406 6.65715C6.39732 8.60105 6.34663 10.7064 6.92905 12.6803C7.51148 14.6541 8.69804 16.3984 10.3237 17.6704C7.53812 18.7803 5.10762 20.6211 3.2913 22.9967C1.47497 25.3722 0.340907 28.1935 0.0100017 31.1596C-0.0139509 31.3762 0.00522047 31.5953 0.0664209 31.8045C0.127621 32.0137 0.229652 32.2088 0.366688 32.3788C0.643445 32.7221 1.04598 32.9419 1.48575 32.99C1.92552 33.0382 2.36649 32.9106 2.71166 32.6353C3.05683 32.3601 3.27792 31.9597 3.3263 31.5224C3.6904 28.2988 5.23596 25.3217 7.66769 23.1597C10.0994 20.9978 13.2468 19.8026 16.5086 19.8026C19.7703 19.8026 22.9177 20.9978 25.3494 23.1597C27.7812 25.3217 29.3267 28.2988 29.6908 31.5224C29.7359 31.9276 29.9303 32.3018 30.2365 32.5729C30.5428 32.8439 30.9391 32.9925 31.349 32.99H31.5314C31.966 32.9403 32.3633 32.7217 32.6366 32.382C32.91 32.0422 33.0372 31.6087 32.9906 31.1761C32.6581 28.2015 31.5179 25.3731 29.6922 22.9938C27.8666 20.6146 25.4243 18.7744 22.6271 17.6704ZM16.4754 16.4996C15.1636 16.4996 13.8813 16.1127 12.7905 15.3879C11.6998 14.6631 10.8497 13.6329 10.3477 12.4276C9.84569 11.2223 9.71434 9.89604 9.97026 8.6165C10.2262 7.33697 10.8579 6.16164 11.7855 5.23914C12.713 4.31665 13.8949 3.68842 15.1815 3.43391C16.4681 3.17939 17.8016 3.31002 19.0136 3.80927C20.2255 4.30852 21.2614 5.15397 21.9902 6.23871C22.719 7.32345 23.108 8.59875 23.108 9.90336C23.108 11.6528 22.4092 13.3305 21.1654 14.5676C19.9215 15.8046 18.2345 16.4996 16.4754 16.4996Z" fill="url(#paint0_linear_185_4659)"/>
<defs>
<linearGradient id="paint0_linear_185_4659" x1="16.5" y1="0" x2="16.5" y2="33" gradientUnits="userSpaceOnUse">
<stop stop-color="#FD773D"/>
<stop offset="1" stop-color="#EAAC33" stop-opacity="0.92"/>
</linearGradient>
</defs>
</svg>
