<svg width="44" height="33" viewBox="0 0 44 33" fill="none" xmlns="http://www.w3.org/2000/svg">
<path d="M-0.0078125 7.31264C-0.0078125 5.55515 0.704309 3.86965 1.97189 2.62692C3.23948 1.38419 4.95869 0.686035 6.75132 0.686035H36.4915C38.2841 0.686035 40.0034 1.38419 41.2709 2.62692C42.5385 3.86965 43.2506 5.55515 43.2506 7.31264V25.8671C43.2506 27.6246 42.5385 29.3101 41.2709 30.5528C40.0034 31.7956 38.2841 32.4937 36.4915 32.4937H6.75132C4.95869 32.4937 3.23948 31.7956 1.97189 30.5528C0.704309 29.3101 -0.0078125 27.6246 -0.0078125 25.8671V7.31264ZM6.75132 3.33668C5.67574 3.33668 4.64421 3.75557 3.88366 4.50121C3.12311 5.24685 2.69584 6.25815 2.69584 7.31264V10.7585H40.547V7.31264C40.547 6.25815 40.1197 5.24685 39.3592 4.50121C38.5986 3.75557 37.5671 3.33668 36.4915 3.33668H6.75132ZM2.69584 25.8671C2.69584 26.9216 3.12311 27.9329 3.88366 28.6786C4.64421 29.4242 5.67574 29.8431 6.75132 29.8431H36.4915C37.5671 29.8431 38.5986 29.4242 39.3592 28.6786C40.1197 27.9329 40.547 26.9216 40.547 25.8671V13.4091H2.69584V25.8671ZM29.462 22.4213C29.1035 22.4213 28.7596 22.5609 28.5061 22.8095C28.2526 23.058 28.1102 23.3951 28.1102 23.7466C28.1102 24.0981 28.2526 24.4352 28.5061 24.6838C28.7596 24.9323 29.1035 25.0719 29.462 25.0719H35.4101C35.7686 25.0719 36.1124 24.9323 36.3659 24.6838C36.6195 24.4352 36.7619 24.0981 36.7619 23.7466C36.7619 23.3951 36.6195 23.058 36.3659 22.8095C36.1124 22.5609 35.7686 22.4213 35.4101 22.4213H29.462Z" fill="#FD773D"/>
</svg>
